inDegrees=no
num_controls=7
num_derivatives=13
num_iterations=26
num_multipliers=7
num_parameters=0
num_slacks=7
num_states=26
objective=0.400848
objective_accelerations=0.000000
objective_balance=0.002220
objective_effort=0.009027
objective_height=0.389600
objective_ligament=0.000000
solver_duration=366.505702
status=Solve_Succeeded
success=true
DataType=double
version=3
OpenSimVersion=4.5
endheader
time	/jointset/ground_pelvis/pelvis_tilt/value	/jointset/ground_pelvis/pelvis_tx/value	/jointset/ground_pelvis/pelvis_ty/value	/jointset/hip_l/hip_flexion_l/value	/jointset/hip_l/hip_adduction_l/value	/jointset/hip_l/hip_rotation_l/value	/jointset/back/lumbar_extension/value	/jointset/patellofemoral_l/patellar_flexion_l/value	/jointset/knee_l/knee_flexion_l/value	/jointset/knee_l/knee_adduction_l/value	/jointset/knee_l/knee_rotation_l/value	/jointset/ankle_l/ankle_angle_l/value	/jointset/subtalar_l/subtalar_angle_l/value	/jointset/ground_pelvis/pelvis_tilt/speed	/jointset/ground_pelvis/pelvis_tx/speed	/jointset/ground_pelvis/pelvis_ty/speed	/jointset/hip_l/hip_flexion_l/speed	/jointset/hip_l/hip_adduction_l/speed	/jointset/hip_l/hip_rotation_l/speed	/jointset/back/lumbar_extension/speed	/jointset/patellofemoral_l/patellar_flexion_l/speed	/jointset/knee_l/knee_flexion_l/speed	/jointset/knee_l/knee_adduction_l/speed	/jointset/knee_l/knee_rotation_l/speed	/jointset/ankle_l/ankle_angle_l/speed	/jointset/subtalar_l/subtalar_angle_l/speed	/forceset/tau_hip_flexion_l	/forceset/tau_hip_adduction_l	/forceset/tau_hip_rotation_l	/forceset/tau_knee_flexion_l	/forceset/tau_ankle_angle_l	/forceset/tau_subtalar_angle_l	/forceset/tau_lumbar_extension	lambda_cid13_p0	lambda_cid13_p1	lambda_cid13_p2	lambda_cid13_p3	lambda_cid13_p4	lambda_cid13_p5	lambda_cid14_p0	/jointset/ground_pelvis/pelvis_tilt/accel	/jointset/ground_pelvis/pelvis_tx/accel	/jointset/ground_pelvis/pelvis_ty/accel	/jointset/hip_l/hip_flexion_l/accel	/jointset/hip_l/hip_adduction_l/accel	/jointset/hip_l/hip_rotation_l/accel	/jointset/back/lumbar_extension/accel	/jointset/patellofemoral_l/patellar_flexion_l/accel	/jointset/knee_l/knee_flexion_l/accel	/jointset/knee_l/knee_adduction_l/accel	/jointset/knee_l/knee_rotation_l/accel	/jointset/ankle_l/ankle_angle_l/accel	/jointset/subtalar_l/subtalar_angle_l/accel	gamma_cid13_p0	gamma_cid13_p1	gamma_cid13_p2	gamma_cid13_p3	gamma_cid13_p4	gamma_cid13_p5	gamma_cid14_p0
0.5	-0.03167831596671519	0.06705757766352373	0.8583460486995559	0.5055323270103786	-0.3503382683206894	-0.06565169811415099	-0.327579682265177	0.5903956759300159	0.5903956759300254	-0.07633319093873187	-0.116051883843417	0.221287531753061	0.1438854822926321	-0.05128090006331477	-0.01679840469153846	-0.1084357849476914	0.4810419321639511	-0.1343587166597579	0.117027465560156	-0.3655907964307553	0.6799113010751192	0.6799113010751158	-0.140736068219768	-0.2171915710743583	0.2648929219473309	-0.06643403035591956	-0.01833503436579682	0.07057787942110992	0.01487112673779121	-0.2062504257869036	0.049041104688277	-0.04917939389777426	0.06054781413562227	-15.41936741508598	29.2610699967312	-10.88869100853485	4.998554878481209	-461.9031530745634	-20.86170531356552	-17.70657896548794	-0.04716841006960584	-0.05426843392754988	0.03121185075252083	-0.1734038203497558	0.648073309480883	-0.4687853753273255	0.3352423485803714	-0.6326069277559514	-0.6326069277559514	1.375191289481462	0.2606372959700806	-0.3156499549176888	0.6464232890201009	8.172744450495684e-08	-2.073561815826661e-07	-4.740413135436975e-07	-3.917482881738097e-08	6.437522575483135e-08	1.448912040429913e-07	6.721114802066968e-08
0.51	-0.03219375126205967	0.06688691769858283	0.8572633503036341	0.5103341453308008	-0.3516490880057978	-0.0645065413693099	-0.3312183076017122	0.5971629627478013	0.5971629627477966	-0.07767031182941786	-0.118211336827833	0.2239207225960776	0.1432540440437665	-0.05181170775041095	-0.01732871679713457	-0.108089917935421	0.479275193165233	-0.1278222780840279	0.1120347533243345	-0.3621051235136673	0.6734748626206103	0.6734748626206069	-0.1267474136416851	-0.2146303106716359	0.2617213523957325	-0.05987550003021797	-0.01943877261493757	0.07099187846619996	0.01481227388031694	-0.2070345261893877	0.04806152243361619	-0.04897554971700001	0.06161762208183909	-15.71853349151334	29.23580499700457	-10.8970936753512	4.995570843124658	-462.2865627906572	-20.84112094542071	-17.5382240258903	-0.05685760057947753	-0.05168957554934185	0.03838382576500547	-0.1852765509228755	0.6539678011660444	-0.5098379778714466	0.3596018755980459	-0.6598552282436166	-0.6598552282437872	1.401746502000175	0.2640943808518103	-0.3214945712674231	0.657372934976173	7.351202114097367e-08	-2.004773066683893e-07	-4.644086481998561e-07	-3.776841290479544e-08	6.769961226504688e-08	1.476531461812143e-07	6.230595692243934e-08
0.52	-0.03271465876497522	0.06671109921723965	0.856184532517695	0.5151169027388239	-0.3528950355712372	-0.06341037651283654	-0.3348212017866418	0.6038637465962833	0.6038637465962934	-0.07886933738236196	-0.1203431324144939	0.226521480920373	0.142687552104287	-0.05237534153889829	-0.0178301079719958	-0.107659662951175	0.4772297497148698	-0.1213842927264241	0.1072290878820352	-0.3584445661030561	0.6666107072083008	0.6666107072082974	-0.1131170006624407	-0.2116600915317891	0.2584064182046201	-0.0534447684792876	-0.02054251086420655	0.07140587751127929	0.01475342102250835	-0.2078186265918941	0.04708194017898809	-0.04877170553621824	0.06268743002795316	-16.0232785908536	29.21221931884459	-10.90656662721838	5.01601295422434	-462.7263569047261	-20.80436602017772	-17.36797197709339	-0.05373363034246076	-0.04848424778534598	0.04808944514757536	-0.2291447106776065	0.6283826658563595	-0.431376016622408	0.3702192472878237	-0.718150319315213	-0.718150319315213	1.303542969714859	0.3424290433949532	-0.3443228828261256	0.6208635340645268	6.567746571163897e-08	-1.932170121024867e-07	-4.527097695926969e-07	-3.640917348473872e-08	7.058517359448005e-08	1.491950981647898e-07	5.74021661611277e-08
0.53	-0.03324131514159811	0.06653043167324531	0.8551104430901223	0.5198777413335101	-0.3540770996932279	-0.06236138880873	-0.3383866247645189	0.6104937739945366	0.6104937739945381	-0.07993383100620192	-0.1224432436989067	0.229088419968839	0.1421847419543681	-0.05295636095151831	-0.01829652012956515	-0.1071438242704719	0.4748851626275017	-0.1150442344987972	0.1025876377874462	-0.3546116599601124	0.6593271601893161	0.6593271601893127	-0.09983453653830091	-0.2083055888189294	0.2549629178678738	-0.04713557375742964	-0.02163612964418043	0.07185403266138828	0.01465411809331945	-0.2085771639441565	0.0461987991242982	-0.04854361023963732	0.06375160705990991	-16.29197784918475	29.17273599466179	-10.91458543577526	4.980760132286236	-463.1119974385199	-20.78116678234607	-17.19608764169499	-0.0603415161317627	-0.04469474689664009	0.05550524346258948	-0.2450264550571083	0.6345554199836224	-0.4776086226728785	0.3940817322072493	-0.7436096947423732	-0.7436096947424747	1.332619587460763	0.3403676835094768	-0.3471369545285267	0.6332829412778512	5.815608330651592e-08	-1.857642174453162e-07	-4.397646563532204e-07	-3.505500712582439e-08	7.30538677517772e-08	1.498747482651991e-07	5.255943013785783e-08
0.54	-0.03377379279641286	0.06634530499823378	0.8540419468821426	0.5246135519077202	-0.3551962156291914	-0.06135823142890395	-0.3419128675941133	0.6170489353623256	0.617048935362336	-0.08086709569814368	-0.1245081285964668	0.2316203693448425	0.1417444908516769	-0.05353959713996697	-0.01872193417543066	-0.1065410190325719	0.4722241456484693	-0.1087946555204662	0.09806302302102607	-0.3506085364402947	0.65163750110825	0.6516375011082468	-0.08687121426625012	-0.2046148141749646	0.2514084837138904	-0.0409329590343246	-0.02272974842422556	0.07230218781150102	0.01455481516365863	-0.2093357012964133	0.04531565806964672	-0.04831551494302502	0.06481578409180444	-16.56626526925758	29.13505862333821	-10.92383753281946	4.968301137168406	-463.5551599348258	-20.74254384478963	-17.02282976465333	-0.05417698550305142	-0.04028462544911232	0.06548275658688228	-0.2924306890093272	0.6102868159978576	-0.4080089509881871	0.4042627226653278	-0.7993727317307018	-0.7993727317307018	1.239714599298118	0.4096834296159827	-0.3665096462789521	0.5995475343126895	5.098119020477598e-08	-1.780984439637644e-07	-4.254407303290521e-07	-3.370645351540802e-08	7.50613471654345e-08	1.49600362239552e-07	4.778424403752781e-08
0.55	-0.03431209810097646	0.06615614378782941	0.852979912039985	0.5293211548841368	-0.3562532888591317	-0.0603997269751281	-0.3453982141197915	0.6235252068464208	0.6235252068464194	-0.08167231897890391	-0.1265344310009163	0.2341162619667784	0.1413657475203607	-0.05412028458269756	-0.01910197680231055	-0.1058516545003909	0.4692430271874128	-0.1026333027819247	0.09364989769827513	-0.3464309542314952	0.64355449576873	0.6435544957687269	-0.07421884902924368	-0.200596420019685	0.247756816289287	-0.03482931038996979	-0.02380616734359271	0.0727815007951909	0.0144169231703729	-0.2100681046999762	0.04452424561447021	-0.04806467449923346	0.06586727652635076	-16.80599676261491	29.08237829961219	-10.9317550289807	4.905267443298262	-463.9385302578117	-20.71637032290749	-16.84846040620308	-0.05983182536508914	-0.03562102207156304	0.07282276741668446	-0.3089582671269466	0.6171510131331017	-0.4561197370549658	0.4289781467851774	-0.822118460624768	-0.8221184606248128	1.271133989003673	0.4052294013884472	-0.3664831746603556	0.6138098060802283	4.414290042185106e-08	-1.699869260352694e-07	-4.100680781525261e-07	-3.233133414788538e-08	7.667192127855858e-08	1.487488203600894e-07	4.312018207309486e-08
